/* XPM */
static char *_5af7390c0734d9ad47426146233a12f9dK4Wkashivt9pld[] = {
/* columns rows colors chars-per-pixel */
"64 64 216 2 ",
"   c None",
".  c #1B1B16",
"X  c #1D1E19",
"o  c #231C13",
"O  c #221F1A",
"+  c #1F201B",
"@  c #23221C",
"#  c #2B241B",
"$  c #34291D",
"%  c #3C2A1D",
"&  c #252521",
"*  c #2B2A24",
"=  c #2A2A25",
"-  c #362D22",
";  c #3A2E22",
":  c #3E3226",
">  c #32312B",
",  c #3B342A",
"<  c #3D3A34",
"1  c #383833",
"2  c #2F302B",
"3  c #42362A",
"4  c #44392E",
"5  c #473729",
"6  c #553C2E",
"7  c #493E31",
"8  c #433C33",
"9  c #5C3E32",
"0  c #452F21",
"q  c #4C4134",
"w  c #494238",
"e  c #534535",
"r  c #5C4234",
"t  c #52463A",
"y  c #564A3C",
"u  c #5A4D3D",
"i  c #5C4C35",
"p  c #5E503D",
"a  c #614336",
"s  c #644539",
"d  c #6A4C3E",
"f  c #644B3A",
"g  c #62523D",
"h  c #4C4B44",
"j  c #494943",
"k  c #5C4E41",
"l  c #524E48",
"z  c #5E5143",
"x  c #55534E",
"c  c #585750",
"v  c #684D40",
"b  c #625445",
"n  c #675844",
"m  c #6A5B46",
"M  c #645649",
"N  c #66594A",
"B  c #6B5D4C",
"V  c #6B5143",
"C  c #775949",
"Z  c #665D53",
"A  c #6D604E",
"S  c #71624D",
"D  c #7A684F",
"F  c #6E6151",
"G  c #67635D",
"H  c #736554",
"J  c #776855",
"K  c #7A6B55",
"L  c #736559",
"P  c #76695A",
"I  c #7B6D5C",
"U  c #7E6355",
"Y  c #7F705D",
"T  c #7F7056",
"R  c #696762",
"E  c #7C6F61",
"W  c #716E6A",
"Q  c #7E7161",
"!  c #76726D",
"~  c #7F7874",
"^  c #866A5A",
"/  c #926A5B",
"(  c #83735D",
")  c #89785F",
"_  c #88725B",
"`  c #95755E",
"'  c #837564",
"]  c #8B7663",
"[  c #877965",
"{  c #8A7B65",
"}  c #86796A",
"|  c #8B7D6B",
" . c #9B7664",
".. c #9B7B63",
"X. c #9E7C69",
"o. c #957A66",
"O. c #91776A",
"+. c #A07D65",
"@. c #A17C6A",
"#. c #A07567",
"$. c #8E806B",
"%. c #8F8066",
"&. c #928267",
"*. c #93846D",
"=. c #9A826B",
"-. c #998A6D",
";. c #8E8171",
":. c #8D8279",
">. c #938473",
",. c #978974",
"<. c #9B8C74",
"1. c #968A7A",
"2. c #9B8D7B",
"3. c #988775",
"4. c #9F907C",
"5. c #A38067",
"6. c #A4826C",
"7. c #A8866F",
"8. c #A68671",
"9. c #A98571",
"0. c #AA8A75",
"q. c #AE8E79",
"w. c #A58D79",
"e. c #A19176",
"r. c #A2937C",
"t. c #A9997F",
"y. c #AC967F",
"u. c #B2927D",
"i. c #B08E7A",
"p. c #9F9181",
"a. c #8F8781",
"s. c #A49482",
"d. c #AB9783",
"f. c #A79884",
"g. c #AB9B84",
"h. c #A79989",
"j. c #AC9C8A",
"k. c #A6958B",
"l. c #B59681",
"z. c #B99583",
"x. c #B59984",
"c. c #B99B85",
"v. c #B39D8B",
"b. c #BC9D89",
"n. c #A69795",
"m. c #B29F90",
"M. c #AFA08C",
"N. c #B0A087",
"B. c #B3A38C",
"V. c #BCA38D",
"C. c #B8A88F",
"Z. c #B4A592",
"A. c #BAA591",
"S. c #B7A894",
"D. c #BBAB94",
"F. c #BCAD9A",
"G. c #BFB09C",
"H. c #BFB097",
"J. c #9D98BA",
"K. c #BAADA7",
"L. c #BEB0A7",
"P. c #AFA3A5",
"I. c #C09F8C",
"U. c #C0A18D",
"Y. c #C5A794",
"T. c #C4AC96",
"R. c #C4AD9A",
"E. c #C9AC99",
"W. c #C8AD97",
"Q. c #C0B097",
"!. c #C3B39C",
"~. c #CAB39C",
"^. c #C8B89F",
"/. c #C5B5A2",
"(. c #CBB5A2",
"). c #C7B8A3",
"_. c #CBBBA4",
"`. c #C5B5AB",
"'. c #CCBDAA",
"]. c #D2B6A6",
"[. c #D3BDA9",
"{. c #D4BEA7",
"}. c #C4B6B1",
"|. c #CDBCB3",
" X c #C7B9B0",
".X c #CFC0A7",
"XX c #CFC0AC",
"oX c #D1C1A7",
"OX c #D3C3AC",
"+X c #D9C9AF",
"@X c #D8C5AD",
"#X c #D5C5B1",
"$X c #DCCCB3",
"%X c #DDCEB9",
"&X c #D7C8B1",
"*X c #DFD0BA",
"=X c #E1D1B6",
"-X c #E6D6BE",
";X c #E3D4BB",
":X c #E8D9BF",
">X c #E7D8BE",
",X c #E1CFBC",
"<X c #ACAADA",
"1X c #B2ADC9",
"2X c #E5D6C1",
"3X c #E7D8C2",
"4X c #EEDFC5",
"5X c #EBDBC4",
"6X c #EDDEC9",
"7X c #EFE1C7",
"8X c #EFE1CB",
"9X c #F0E2C9",
"0X c #F3E5CB",
"qX c #F4E6CE",
"wX c #F2E3CB",
"eX c #F5E6D1",
/* pixels */
"                                                                                x.q.8.6.7.=.......` _                           ",
"~.                                                                            w.u.0.q.q.0.6.6.5.X...]                           ",
"oX~.                                                                        3.c.q.i.q.8.7.5.X.6.5...(                           ",
"N.OX~.                                                                    >.c.q.u.u.8.X.......5.....                            ",
"j.A.=XoX                                                                } V.l.l.u.u.u.0.8.0.6.5...]                             ",
"d.m.~.-X+X                                                              R.U.x.u.q.0.X.....5.5.+. .                              ",
"h.j.A.{.3X$XC.                                                      S.!.T.c.l.l.q.0.8.7.@.X.5.+. .                              ",
"j.j.v.R.OX$X;X^.N.N.N.      B.C.t.).S.!.).'.M.  #X-X3X4X!.$X).S.S.'.).!.V.c.x.u.q.q.0.q.u.7.7.X.o.                              ",
"k.h.h.Z.T.~.oX;X$X.XoXOX$X=X-X5X4X7X4X5X0X9X5X;X8XwX8X8XqX4X-X*XOXOX'.).T.c.x.u.q.u.l.x.x.c.u.5.^                               ",
"k.k.h.m.D.!.'.&X;X;X;X-X9XeXqX9XwX4X5X7X0X0X0X4X0XqX9X6XqX9X3X-X$X&XOX_.).D.V.x.u.u.l.x.b.U.b.0.                                ",
"a.k.j.Z.F./.'.#X&X*X;X2X6XwXwX6X8X3X>X7XqXqX0X4X7XqX9X5X0XqX6X5X;X;X$XOXOX'.).A.x.u.q.q.u.c.V.c.                                ",
"J.k.Z.F./.'.OX#X$X$X-X3X6XwX8X5X4X3X;X:X9X0X9X3X:X4X4X>X4XqX6X5X3X-X%X%X&X@XoX).B.0.6.@.7.0.0.o.                                ",
"<Xn.K.`./.'.OX&X$X$X2X5X4X6X6X3X3X3X-X-X7XqX4X;X;X5X5X3X5X8X6X5X3X;X;X;X$XOXoX~.~.~.V.l.u.u.u.                                  ",
"<XK.K.L./.OX&X%X%X$X2X5X5X6X6X2X-X:X;X;X4X0X4X=X;X3X:X-X:X4X5X5X3X;X;X-X;X&XoXoXoX^.T.c.u.u.l.                                  ",
"1XK.`.`.'.#X$X;X%X#X$X-X3X4X3X-X-X-X;X;X3X9X4X=X;X:X;X;X;X3X5X3X>X;X$X3X-X$X+XoX_._.^.T.V.c.u.                                  ",
"P.L. X|.#X#X$X$X$XOX#X%X-X-X;X;X;X;X=X;X:X9X5X$X;X;X=X=X$X-X3X2X-X$X$X-X-X;X$X+XOX_._.~.~.W.u.                                  ",
"}.}.|.&X&X#XOX&XOX'.[.&X&X&X&X&X$X$X+X=X:X4X3X&X$X$X+X&X+X&X*X;X$XOX+X;X-X;X;X=X$XOXoX_._.V.l.                                  ",
"}.#X#X&X#X#XOXOX'././.oXoXoXOXOX+X+XOX$X;X3X:X&X@X+XOXOXOXoX#X$X'.).'.#X;X;X=X;X=X$XOXoX_.T.V.                                  ",
" X|.|.'.'././.).).!.F././.).oXoXOXOXOX+X;X3X:X+XOXOXoXoXoX_._._.!.F./.OXOXoXOXOX&X$X&XOXOX^.D.                                  ",
"|. XL.Z.h.h.s.f.j.B.j.Z.D.F.).)._._.oXOX=X3X:X+XoX_.^.).~.Q.F.C.h.B.S.B.j.h.C.).oXOX+X$X$XoX~.                                  ",
"|.L.j.} z 8 , < w F >.s.f.j.S.H.~.^.oXOX;X3X:X$XoX^.Q.D.B.g.f.r.,.>.J N k z P <.B.!.oXOX$X$XoX                                  ",
"'.S.>.z < = & @ X @ 4 Q >.r.f.B.D.~.oX$X;X5X3X=XoXQ.S.g.r.4.,.| N - o O # # ; e K t.~.OX$X=X$XB.                                ",
"'.h.I l > & 2 x R & . > P | 2.s.S.!..X$X-X3X:X$X_.Q.B.r.<.,.' u @ X j c > # , u f ) B.oX$X;X;X$X4.                              ",
"`.p.P j & X @ < < & X . 8 ' 2.s.B.!.'.%X-X-X-X;X_.D.N.t.2.| n # X & h w & O # t g ^ t.).+X=X$X$XoX                              ",
"/.j.} j @ X X + X @ + X & F f.B.D./.'.$X2X2X2X;X.XQ.S.C.h.' 7 @ @ @ @ O + O & 7 m o.V._.&X$X+X&X&XN.                            ",
"%XF.| j O X + X X . X & > N j.Q.!./.oX%X;X-X-X;XOX~.H.H.B.$.3 - # o o o . . # u m w._.=X;X;X&XOX+X).                            ",
"2XG.:.G & X X . X . @ 1 j Z Z.).).).oX%X2X-X2X;XOX).~.).S.| 3 3 4 # o o . . , S D v.$X;X-X;X$XoXOXoXf.                          ",
"5X'.p.! l = X + X @ > l c L D.'.'.OX$X;X2X%X;X;X#XoX).~.D.>.5 i u 8 # o O * N D =.OX3X:X-X;X$X_.oXOX~.                          ",
"5X,XG.;.! l 1 = > < x Z h } H.'.'.OX&X%X*X&X$X$X[.'.).).D.*.n i m n y w t L ) %._.2X3X:X;XOXOX_._.OX_.                          ",
"5X5X2X).1.~ W R G G G E | 2.!././.'.#X$X$X$X%X$X#X'.!.~.H.*.) =.{ ( ) { *.,.S.%X5X3X3X;XOXoX^.!.^.oX_.r.                        ",
"6X6X6X5X%X/.M.f.s.h.F.S.r.j./././.'.$X$X&X+X$X$X$XOX!.F.!.r.=.y.Q._.).).oX-X3X5X5X3X-X$XOX_.D.N.S.^._.S.                        ",
"2X6X6X8X4X5X5X2X;X%X#X/.D.M.!.!.).OX&XOXOX[.OXOXOX#X'.!.!.S.B.D.OX-X4X4X4X6X4X5X3X;X$X&XoX).Q.C.C.D.).Q.                        ",
"$X-X2X5X4X5X5X5X9X6X3X;X#XG./.F./.'.oX@X[.[.[.[.[.'.'.'.!.!.$X$X3X6X9XwX7X4X-X>X-X;X&X).!.D.S.B.B.S.!.Q.                        ",
"'.#X;X-X2X5X4X6XwXwX5X2X%X/.F.F.R.(.[.@XOX[.OX@X[.!.~.!.D.~.%X2X5X9XqX9X9X5X-X$X$X#X_.!.D.C.N.N.B.C.S.D.                        ",
"/.'.#X%X;X3X5X8XeXwX6X3X$X!.S.S.F.(.[.[.[.[.[.[.(.~.T.B.S.!.$X5X5X9X0X9X3X-X=X&X[.(./.R.S.g.g.N.S.B.N.f.                        ",
"/.'.OXOX%X2X3X5X6X6X5X;X#X/.F.B.F.R.(.].].].].].(.E.V.B.D.).$X2X3X4X5X3X:X;X&X_.).F.D.S.M.t.f.N.D.D.v.                          ",
"S.F./.OX$X-X2X5X5X5X3X*X#X'.G.v.A.R.Y.E.Y.Y.Y.E.E.Y.V.Q.).'.$X;X2X3X3X-X=X+XoX).F.D.B.h.s.r.t.N.C.S.N.                          ",
"f.B.F./.XXOX%X2X2X2X2X%X#X'.G.d.x.b.U.b.b.c.b.I.b.b.c.A./.).#X-X2X2X-X;XOX).Q.S.j.t.r.<.*.<.r.f.N.S.B.                          ",
"1.s.h.B.F.'.OX#X%X2X2X%XOX/.B.w.9.u.z.z.z.u.u.i.0.8.0.d.B./.OX$X%X$XOX'.'._.!.s.<.>.*.| [ *.<.r.f.N.g.                          ",
"| ;.1.h.F.F.!.).OX%X%X$X'.S.r.X.6.0.q.0.9.9.9.6. ./ ` &.2.~.'.OXXXOX'.)./.!.!.B.>.' I ' ' | *.<.r.g.g.                          ",
"I ' ;.f.Z.Z.F./.'.#X#X#X'.F.[ U / X.@.#.#.#. .` C V s V g.).'.'.OX'././.!.S.B.S.>.I P P Y | *.,.e.g.g.                          ",
"L P } s.h.Z.F.!.!.'.XXOXOXOXs.V r s ^ / / / / d % % 7 I H.).).'.OX'.)./.F.M.f.h.s.Y L P I Y ' %.-.f.C.                          ",
"L P | s.s.h.B.F./.).).'.'.OXD.^ r 0 a C C C C 6 0 6 S h././.).)./.!.!.B.S.j.4.2.r.| I I ' ' { { -.t.B.                          ",
"P L ' >.2.j.S.S.F.F./.`.'.'.'.D.{ d s v d d d r i J f./.).!.).!.D.D.!./.H.F.M.,.*.| ' I I ' | &.-.f.j.                          ",
"Q ' | 1.Z.F./.F.F.!./.'.'.'.'./.Z.' V s 9 a a f ^ r.F.H.H.!./.!././.!.S.B.B.B.N.| ' | $.*.{ [ { -.g.<.                          ",
">.>.| 2.F./.F.F.F.S.F.'./.).).F.Z.4.m a 9 9 a m <.B.A.S.S.D.S.B.M.h.2.1.1.| *.<.I J I ( ' { *.t.f.M.1.                          ",
"E Q I ;.2.1.2.p.s.s.f.f.F.D.D.S.B.4.' v r 9 v I 4.s.j.B.D.S.h.<.2.>.1.2.4.j.Z.S.r.| J S J ( *.<.g.N.                            ",
"| ' Q >.1.1.2.s.s.2.p.2.h.j.S.Z.f.1.$.H u e F } 1.r.h.j.j.j.h.h.j.h.h.h.f.f.s.2.{ [ >.1.>.>.,.e.g.C.                            ",
"| | ;.>.h.h.h.j.j.h.f.f.s.s.p.p.;.I I H z z H E P } >.1.2.2.2.2.2.3.} ' Q I } ' ( I I Y *.r.g.g.C.!.j.                          ",
"2.| } Q Q } ;.| } } ' } ' } } Q ' P P F z y H H P P P I Q H P Q L E } } ;.;.| ( ' { | >.,.<.r.g.D.).~.                          ",
"s.2.>.} | | ;.} } | } Q H I Q I I P F M y q z Z B P I ' Q L P I ' } ' } I Y ' ( ' $.*.<.r.r.t.N.D.^.oX                          ",
"s.s.r.2.>.| } } ' } Q P P P I I F N z t 3 ; q y b B H F H H F H B H F F L A J Y *.*.*.*.<.r.f.C.Q.oX$X$X                        ",
"s.s.2.1.>.} I P H B N M b N N B b u 7 4 $ $ : : q y z k z k y y u M A A B F K I { <.r.r.<.<.g.C.~.oX$X=X.X                      ",
"s.s.s.2.1.| ' H F B M z z k y t 4 3 ; $ $ - ; - ; : 7 7 t t t u z N F A N A K } *.*.*.-.r.g.N.D._.OX&X$X;XB.                    ",
">.>.>.>.| | Q H F M b z y t 4 : : : : : : , , : : : 4 4 7 q t u M N N N H H J I ( [ { *.e.N.D.!.oX+X$X;X=XoX                    ",
"} ' ' } } } Q P B N M z k t 7 4 4 7 7 q q t q q t q q q q t z b z M M B B K J J T ) &.e.g.S.!._.OX=X;X=X$X&XF.|                 ",
"} Q Y P H P I P F N M b z k y t t t y y y k y u u y y u z z M b k z z m B B K K ) -.<.g.S.Q.).oXOX+X$X$X$X;XOXr.                ",
">.| } P P H F B N M b z z b b z k k M b M z z M N M z b M M b u u p p n S J K { &.<.f.C.Q.^._.OX&X=X%X=X;X;X=XQ.                ",
"p.>.| [ E P H F B N M z z z z u z M B B B B N B F A M b p k p u u n n B J I ' &.<.t.B.D.~._._.OX=X;X;X=X;X;X;X#Xj.              ",
"h.2.>.| } ' Q P H H B N M z k u k b M B B B N B B N b y u u u g g m B H I ' | -.r.g.C.Q.~._.OX$X;X;X;X;X;X;X;X;X).2.            ",
"j.j.r.,.*.| | } Q P H F B M M k u u k z b k k k u u u u u p b n m S S K ( { *.e.g.C.D.Q.^.oX+X;X;X;X;X;X;X;X;X;X+X).4.          ",
"Z.g.f.r.,.*.| | } ' I P H B B M k k k u u u y y y y u u u g n m B H K ( ) -.<.t.N.C.S.!.oX+X$X=X$X$X;X-X;X;X;X;X$XoXD.          ",
"S.j.g.s.r.<.*.| } Q I I L H F B M M z k u u u y y u u u b n B S J K K ) &.-.r.g.S.D.Q._.oXOX$X$XOX$X;X;X;X-X;X;X;X+X).Z.        ",
"D.H.Z.j.j.s.r.,.| ' I P H H A B B N M b z z k u u u k M m B S S S T ' | -.<.t.N.D.D.~._.OXoXoXOX$X;X;X;X;X:X-X;X;X=XoX).D.      "
};
